<?xml version="1.0" encoding="utf-8"?>
<!-- Generator: Adobe Illustrator 22.1.0, SVG Export Plug-In . SVG Version: 6.00 Build 0)  -->
<svg version="1.1" id="Layer_1" xmlns="http://www.w3.org/2000/svg" xmlns:xlink="http://www.w3.org/1999/xlink" x="0px" y="0px"
	 viewBox="0 0 500 500" style="enable-background:new 0 0 500 500;" xml:space="preserve">
<style type="text/css">
	.st0{fill:#FFFFFF;}
</style>
<path class="st0" d="M444.9,355c-19-32.8-37.9-65.7-56.9-98.5c-1.3-2.2-2.5-4.3-3.8-6.5c17.5-30.3,35-60.7,52.6-91
	c2.7-4.7,5.4-9.3,8.1-14c0.9-1.5,0.1-5.8,0.1-7.5c0-0.3-0.1-0.6-0.1-1c0-1.4,0-2.8,0-4.3c0,0,0-0.1,0-0.1c0-0.4,0-0.7,0-1.1
	c0,0,0-0.1,0-0.1c0-0.1,0-0.2,0-0.3c0-0.2,0-0.4,0-0.6c0,0,0-0.1,0-0.1c0,0,0,0.1,0,0.2c-0.1,0.1-0.1,0.2-0.2,0.4
	c0-0.2,0.1-0.4,0.1-0.4c-28.5,16.4-57,32.9-85.5,49.3c-4,2.3-7.9,4.6-11.9,6.9c-11-19.1-22-38.1-33-57.2
	c-17.4-30.2-34.9-60.4-52.3-90.6c-4-7-8.1-14-12.1-20.9c0.6,1,0.2,4.1,0,6.2c-0.2-2-0.7-5,0-6.2c-11,19.1-22,38.1-33,57.2
	c-17.4,30.2-34.9,60.4-52.3,90.6c-4,7-8.1,14-12.1,20.9c-28.5-16.4-57-32.9-85.4-49.3c-4-2.3-8-4.6-12-6.9c0.1,0,0.1,0.2,0.1,0.4
	c0-0.1-0.1-0.2-0.1-0.2c0-0.1,0-0.1,0-0.2c0,0,0,0.1,0,0.1c0,0,0-0.1-0.1-0.1c0,0,0,0.1,0.1,0.1c0,0.2,0,0.4,0,0.7c0,0,0,0.1,0,0.1
	c0,0.4,0,0.8,0,1.2v0c0,0,0,0,0,0c0,0,0,0,0,0c0,1.3,0,2.6,0,3.9c-0.1,0.6-0.1,1-0.1,1.4c0,1.8-0.9,5.9,0.1,7.5
	c19,32.8,37.9,65.7,56.9,98.5c1.3,2.2,2.5,4.3,3.8,6.5c-17.5,30.3-35,60.7-52.6,91c-2.7,4.7-5.4,9.3-8.1,14
	c-0.9,1.5-0.1,5.8-0.1,7.5c0,0.3,0.1,0.6,0.1,1c0,1.4,0,2.8,0,4.3c0,0,0,0.1,0,0.1c0,0.4,0,0.7,0,1.1c0,0,0,0.1,0,0.1
	c0,0.1,0,0.2,0,0.3c0,0.2,0,0.4,0,0.6c0,0,0,0.1,0,0.1c0,0,0-0.1,0-0.2c0.1-0.1,0.1-0.2,0.2-0.4c0,0.2-0.1,0.4-0.1,0.4
	c28.5-16.4,57-32.9,85.5-49.3c4-2.3,8-4.6,12-6.9c11,19.1,22,38,32.9,57.1c17.4,30.2,34.9,60.4,52.3,90.6c4,7,8.1,14,12.1,20.9
	c-0.6-1-0.2-4.1,0-6.1c0.2,2,0.7,5,0,6.2c11-19.1,22-38.1,33-57.2c17.4-30.2,34.9-60.4,52.3-90.6c4-7,8.1-14,12.1-20.9
	c28.5,16.4,57,32.9,85.4,49.3c4,2.3,8,4.6,12,6.9c-0.1,0-0.1-0.2-0.1-0.4c0,0.1,0.1,0.2,0.1,0.2c0,0.1,0,0.1,0,0.2c0,0,0-0.1,0-0.1
	c0,0,0,0.1,0.1,0.1c0,0,0-0.1-0.1-0.1c0-0.2,0-0.4,0-0.7c0,0,0-0.1,0-0.1c0-0.4,0-0.8,0-1.2c0,0,0,0,0,0c0,0,0,0,0,0
	c0-1.3,0-2.6,0-3.9c0.1-0.6,0.1-1,0.1-1.4C445,360.7,445.9,356.6,444.9,355z M444.9,130.1c-0.1,0.5-0.1,2-0.1,2c0,0,0,0.1,0,0.1
	c0,1.2,0,2.3,0,3.5c0,0,0-0.1,0-0.1c-0.1-1.6-0.2-3.6-0.2-4.8C444.7,130.5,444.8,130.3,444.9,130.1z M55.4,131.1c0,0.8,0,1.9-0.1,3
	c0,0,0,0.1,0,0.1c0-0.7,0-1.3,0-2C55.3,131.8,55.3,131.4,55.4,131.1c-0.2-0.3-0.2-0.6-0.2-0.9C55.3,130.5,55.4,130.7,55.4,131.1z
	 M68.1,152.4c24.2,14,48.4,28,72.6,41.9c1.8,1,3.6,2.1,5.4,3.1c-8.7,15-17.4,30-26,45.1l0,0v0C102.7,212.5,85.4,182.4,68.1,152.4z
	 M55.1,369.9c0.1-0.5,0.1-2,0.1-2c0,0,0-0.1,0-0.1c0-1.2,0-2.3,0-3.5c0,0.1,0,0.1,0,0.2c0.1,1.6,0.2,3.6,0.2,4.7
	C55.3,369.5,55.2,369.7,55.1,369.9z M68,347.6c14.7-25.4,29.3-50.8,44-76.1c2.7-4.7,5.4-9.3,8.1-14c10.8-18.8,21.7-37.5,32.5-56.3
	c0,0,0,0,0,0c0,0,0,0,0,0c0,0,0.1,0,0.1,0c0,0,0,0-0.1-0.1c11-19.1,22-38,33-57.1c17.4-30.2,34.9-60.4,52.3-90.6
	c4-7,8.1-14,12.1-20.9c11,19.1,22,38.1,33,57.2c17.4,30.2,34.9,60.4,52.3,90.6c1.8,3.2,3.7,6.4,5.6,9.7
	c-26.3,15.2-52.6,30.4-79,45.5c-4,2.3-8,4.6-12,6.9c-0.1,0-0.1,0.2-0.1,0.3c-28.4,16.3-56.8,32.8-85.2,49.1c-4,2.3-8,4.6-12,6.9
	c-0.1,0-0.1,0.1-0.1,0.2C124.3,315.1,96.2,331.4,68,347.6z M314.4,356c-17.4,30.2-34.9,60.4-52.3,90.6c-4,7-8.1,14-12.1,20.9
	c0,0,0,0,0-0.1c-11-19.1-22-38.1-33-57.2c-17.4-30.2-34.9-60.4-52.3-90.6c-1.8-3.2-3.7-6.4-5.6-9.7c26.3-15.2,52.6-30.4,79-45.5
	c4-2.3,8-4.6,12-6.9c0.1,0,0.1-0.2,0.1-0.3c28.4-16.3,56.8-32.8,85.2-49.1c4-2.3,8-4.6,12-6.9c0,0,0-0.1,0.1-0.1
	c28.2-16.2,56.3-32.5,84.5-48.7c-14.7,25.4-29.3,50.8-44,76.1c-2.7,4.7-5.4,9.3-8.1,14c-10.8,18.8-21.7,37.5-32.5,56.3c0,0,0,0,0,0
	c0,0-0.1,0-0.1,0c0,0,0,0,0.1,0.1C336.4,318,325.4,336.9,314.4,356z M353.9,302.6c8.7-15,17.4-30,26-45.1c17.4,30,34.7,60.1,52,90.1
	c-24.2-14-48.4-28-72.6-41.9C357.5,304.7,355.7,303.6,353.9,302.6z M444.6,368.9c0-0.8,0-1.9,0.1-3c0,0,0-0.1,0-0.1c0,0.7,0,1.3,0,2
	C444.7,368.2,444.7,368.6,444.6,368.9c0.2,0.3,0.2,0.6,0.2,0.9C444.7,369.5,444.6,369.3,444.6,368.9z"/>
</svg>
